<svg width="135" height="40" viewBox="0 0 135 40" fill="none" xmlns="http://www.w3.org/2000/svg">
<g clip-path="url(#clip0_6_11749)">
<path fill-rule="evenodd" clip-rule="evenodd" d="M10.7566 1.72057e-06H124.249C124.655 1.72057e-06 125.067 -0.000128279 125.472 0.00187172C125.753 0.00346346 126.039 0.00766047 126.322 0.0118031C126.386 0.0127355 126.449 0.0136652 126.512 0.0145617C127.269 0.0220095 128.023 0.0811045 128.769 0.191322C129.518 0.304242 130.243 0.515569 130.921 0.818322C132.278 1.43603 133.383 2.4152 134.079 3.61812C134.419 4.2175 134.655 4.85928 134.777 5.52144C134.903 6.18324 134.973 6.85242 134.987 7.52344C134.991 7.83008 134.991 8.1377 134.991 8.44434C135 8.80664 135 9.16992 135 9.53613V30.4648C135 30.834 135 31.1953 134.991 31.5586C134.991 31.8691 134.991 32.1699 134.987 32.4805C134.973 33.1515 134.903 33.8206 134.777 34.4824C134.655 35.1449 134.42 35.7871 134.079 36.3867C133.733 36.9835 133.283 37.5282 132.746 38.001C132.213 38.4778 131.597 38.8758 130.921 39.1797C130.243 39.4833 129.518 39.6958 128.769 39.8105C128.023 39.9198 127.268 39.9789 126.512 39.9873C126.169 39.9941 125.816 39.998 125.472 39.998C125.067 40 124.655 40 124.249 40H10.7566C10.343 40 9.93419 40 9.5216 39.998C9.17621 39.998 8.83358 39.9941 8.48488 39.9873C7.72738 39.9785 6.9717 39.9194 6.22416 39.8105C5.47772 39.6966 4.75481 39.484 4.07967 39.1797C3.40371 38.876 2.78717 38.478 2.25357 38.001C1.71505 37.5301 1.26616 36.9849 0.924356 36.3867C0.581124 35.7875 0.343339 35.1453 0.219258 34.4824C0.0936522 33.8207 0.0260614 33.1514 0.0170916 32.4805C0.00993901 32.2683 0.00715699 32.0607 0.00435296 31.8514C0.0030527 31.7544 0.00174771 31.657 0 31.5586V8.44434C0.00176842 8.34604 0.00308357 8.24765 0.00439918 8.14922C0.0071877 7.94059 0.00997831 7.7318 0.0170916 7.52348C0.0260586 6.85252 0.0936495 6.18319 0.219258 5.52148C0.343683 4.85894 0.581453 4.21711 0.924356 3.61816C1.26632 3.01802 1.71514 2.47064 2.25357 1.99707C2.7892 1.52217 3.40534 1.12447 4.07967 0.818412C4.75482 0.514917 5.4778 0.303534 6.22416 0.191412C6.97157 0.081678 7.72733 0.0226035 8.48488 0.0147017C8.55727 0.0136865 8.6294 0.0126317 8.70135 0.0115795C8.97596 0.00756356 9.24792 0.00358651 9.5216 0.00200172C9.9342 1.72062e-06 10.3429 1.72057e-06 10.7566 1.72057e-06ZM8.40804 39.1173C8.74966 39.1241 9.08566 39.128 9.42998 39.128L124.35 39.13L125.576 39.128C125.912 39.128 126.259 39.1241 126.59 39.1173C127.297 39.1097 128.004 39.0551 128.702 38.9542C129.358 38.8557 129.993 38.6703 130.587 38.4043C131.173 38.1407 131.707 37.7954 132.169 37.3815C132.631 36.9758 133.018 36.5081 133.316 35.9956C133.615 35.4698 133.821 34.9064 133.927 34.3252C134.042 33.7122 134.106 33.0926 134.12 32.4713C134.124 32.1646 134.124 31.8667 134.124 31.5414C134.133 31.1839 134.133 30.8294 134.133 30.466V9.53295C134.133 9.17301 134.133 8.81601 134.124 8.44093C134.124 8.13813 134.124 7.83386 134.121 7.55061C134.107 6.91801 134.042 6.28713 133.924 5.663C133.818 5.0894 133.614 4.53335 133.32 4.01374C132.718 2.97461 131.763 2.12826 130.59 1.5933C129.995 1.32872 129.359 1.14404 128.702 1.04533C128.008 0.944474 127.306 0.890111 126.602 0.882711L125.57 0.870008H9.43053L8.41082 0.882221C7.70067 0.890008 6.99218 0.94486 6.29129 1.04631C5.6412 1.1438 5.01136 1.3272 4.42286 1.59037C3.83742 1.85582 3.30266 2.20091 2.83807 2.61305C2.37296 3.02132 1.98554 3.4935 1.69085 4.01129C1.39165 4.53452 1.18454 5.09514 1.07668 5.67374C0.960772 6.2928 0.898236 6.91875 0.889618 7.5462C0.883007 7.74938 0.873016 8.44093 0.873016 8.44093V31.5463C0.873016 31.5463 0.882396 32.2487 0.889561 32.4596C0.898562 33.0881 0.961463 33.715 1.07772 34.335C1.18538 34.912 1.39233 35.471 1.69137 35.9925C1.98715 36.5107 2.37673 36.9825 2.84466 37.3893C3.30591 37.801 3.83897 38.1443 4.42342 38.4062C5.01327 38.6702 5.6443 38.8549 6.29571 38.9542C6.9943 39.0546 7.70034 39.1091 8.40804 39.1173Z" fill="#A6A6A6"/>
<path d="M9.43001 39.128C9.08569 39.128 8.74969 39.1241 8.40807 39.1173C7.70037 39.1091 6.99433 39.0546 6.29574 38.9542C5.64433 38.8549 5.0133 38.6702 4.42345 38.4061C3.839 38.1443 3.30594 37.801 2.84469 37.3893C2.37676 36.9825 1.98718 36.5107 1.6914 35.9925C1.39236 35.471 1.18541 34.912 1.07775 34.335C0.961494 33.715 0.898592 33.088 0.889592 32.4596C0.882427 32.2487 0.873047 31.5463 0.873047 31.5463V8.44092C0.873047 8.44092 0.883037 7.74936 0.889648 7.54619C0.898266 6.91874 0.960802 6.29278 1.07671 5.67373C1.18457 5.09513 1.39168 4.53451 1.69088 4.01128C1.98557 3.49349 2.37299 3.02131 2.8381 2.61304C3.30269 2.20089 3.83745 1.85581 4.42289 1.59036C5.01139 1.32718 5.64123 1.14378 6.29132 1.0463C6.99221 0.944847 7.7007 0.889995 8.41085 0.882208L9.43056 0.869995H125.57L126.602 0.882698C127.306 0.890099 128.008 0.944461 128.702 1.04532C129.359 1.14403 129.995 1.32871 130.59 1.59329C131.763 2.12824 132.718 2.9746 133.32 4.01372C133.614 4.53334 133.818 5.08938 133.924 5.66299C134.042 6.28712 134.107 6.918 134.121 7.55059C134.124 7.83385 134.124 8.13811 134.124 8.44092C134.133 8.816 134.133 9.173 134.133 9.53294V30.466C134.133 30.8294 134.133 31.1839 134.124 31.5414C134.124 31.8667 134.124 32.1646 134.12 32.4713C134.107 33.0926 134.042 33.7122 133.927 34.3252C133.821 34.9064 133.615 35.4697 133.316 35.9955C133.018 36.5081 132.631 36.9758 132.169 37.3815C131.707 37.7954 131.173 38.1407 130.587 38.4042C129.994 38.6703 129.358 38.8557 128.702 38.9542C128.004 39.0551 127.297 39.1097 126.59 39.1173C126.259 39.1241 125.912 39.128 125.576 39.128L124.35 39.13L9.43001 39.128Z" fill="black"/>
<path d="M32.7973 20.3007C32.8081 19.466 33.0298 18.6477 33.4418 17.9217C33.8538 17.1957 34.4428 16.5858 35.1539 16.1486C34.7021 15.5035 34.1062 14.9725 33.4134 14.598C32.7205 14.2234 31.9499 14.0156 31.1627 13.991C29.4835 13.8147 27.8555 14.9958 26.9998 14.9958C26.1275 14.9958 24.81 14.0085 23.3913 14.0376C22.4736 14.0673 21.5793 14.3341 20.7954 14.8122C20.0115 15.2903 19.3649 15.9632 18.9184 16.7655C16.9844 20.1139 18.427 25.035 20.2796 27.7416C21.2065 29.0669 22.2898 30.5474 23.7072 30.4949C25.0943 30.4374 25.6123 29.6104 27.2866 29.6104C28.9454 29.6104 29.4314 30.4949 30.8776 30.4615C32.366 30.4374 33.3038 29.1303 34.1981 27.7924C34.8641 26.848 35.3766 25.8043 35.7166 24.6999C34.8518 24.3341 34.1139 23.722 33.5948 22.9397C33.0757 22.1574 32.7983 21.2396 32.7973 20.3007Z" fill="white"/>
<path d="M30.0656 12.2109C30.8772 11.2367 31.277 9.98451 31.1802 8.72028C29.9403 8.8505 28.7951 9.44306 27.9726 10.3799C27.5704 10.8376 27.2624 11.37 27.0662 11.9468C26.87 12.5235 26.7893 13.1333 26.8289 13.7413C27.449 13.7477 28.0625 13.6132 28.6232 13.3482C29.1838 13.0831 29.6771 12.6942 30.0656 12.2109Z" fill="white"/>
<path d="M50.3308 27.1396H45.5974L44.4607 30.4961H42.4558L46.9392 18.0781H49.0222L53.5056 30.4961H51.4665L50.3308 27.1396ZM46.0876 25.5908H49.8396L47.99 20.1435H47.9383L46.0876 25.5908Z" fill="white"/>
<path d="M63.1882 25.9697C63.1882 28.7832 61.6824 30.5908 59.4099 30.5908C58.8343 30.6209 58.2618 30.4883 57.758 30.2082C57.2542 29.928 56.8394 29.5117 56.5613 29.0068H56.5183V33.4912H54.6599V21.4424H56.4587V22.9482H56.4929C56.7839 22.4458 57.2056 22.0316 57.7132 21.7497C58.2209 21.4679 58.7954 21.3289 59.3757 21.3476C61.6735 21.3477 63.1882 23.1641 63.1882 25.9697ZM61.2781 25.9697C61.2781 24.1367 60.3308 22.9316 58.8855 22.9316C57.4656 22.9316 56.5105 24.1621 56.5105 25.9697C56.5105 27.7939 57.4656 29.0156 58.8855 29.0156C60.3308 29.0156 61.2781 27.8193 61.2781 25.9697Z" fill="white"/>
<path d="M73.1531 25.9697C73.1531 28.7832 71.6472 30.5908 69.3748 30.5908C68.7991 30.6209 68.2266 30.4883 67.7228 30.2082C67.219 29.928 66.8043 29.5117 66.5261 29.0068H66.4831V33.4912H64.6247V21.4424H66.4235V22.9482H66.4577C66.7487 22.4458 67.1704 22.0316 67.678 21.7497C68.1857 21.4679 68.7602 21.3289 69.3405 21.3477C71.6384 21.3477 73.1531 23.1641 73.1531 25.9697ZM71.2429 25.9697C71.2429 24.1367 70.2956 22.9316 68.8503 22.9316C67.4304 22.9316 66.4753 24.1621 66.4753 25.9697C66.4753 27.7939 67.4304 29.0156 68.8503 29.0156C70.2957 29.0156 71.2429 27.8193 71.2429 25.9697Z" fill="white"/>
<path d="M79.739 27.0361C79.8767 28.2676 81.073 29.0761 82.7078 29.0761C84.2742 29.0761 85.4011 28.2675 85.4011 27.1572C85.4011 26.1933 84.7214 25.6162 83.1121 25.2207L81.5027 24.833C79.2224 24.2822 78.1638 23.2158 78.1638 21.4853C78.1638 19.3427 80.031 17.871 82.6824 17.871C85.3064 17.871 87.1052 19.3427 87.1658 21.4853H85.2898C85.1775 20.246 84.1531 19.498 82.656 19.498C81.1589 19.498 80.1345 20.2548 80.1345 21.3564C80.1345 22.2343 80.7888 22.7509 82.3894 23.1464L83.7575 23.4823C86.3054 24.0849 87.364 25.1083 87.364 26.9247C87.364 29.248 85.5134 30.703 82.57 30.703C79.8161 30.703 77.9568 29.2821 77.8366 27.036L79.739 27.0361Z" fill="white"/>
<path d="M91.3747 19.2998V21.4424H93.0964V22.9141H91.3747V27.9053C91.3747 28.6807 91.7195 29.042 92.4763 29.042C92.6807 29.0384 92.8848 29.0241 93.0876 28.999V30.4619C92.7474 30.5255 92.4015 30.5542 92.0554 30.5478C90.2224 30.5478 89.5076 29.8593 89.5076 28.1035V22.9141H88.1912V21.4424H89.5075V19.2998H91.3747Z" fill="white"/>
<path d="M94.0935 25.9697C94.0935 23.1211 95.7713 21.3311 98.3875 21.3311C101.012 21.3311 102.682 23.1211 102.682 25.9697C102.682 28.8262 101.021 30.6084 98.3875 30.6084C95.7546 30.6084 94.0935 28.8262 94.0935 25.9697ZM100.789 25.9697C100.789 24.0156 99.8933 22.8623 98.3875 22.8623C96.8816 22.8623 95.9871 24.0244 95.9871 25.9697C95.9871 27.9316 96.8816 29.0762 98.3875 29.0762C99.8933 29.0762 100.789 27.9316 100.789 25.9697Z" fill="white"/>
<path d="M104.215 21.4424H105.987V22.9834H106.03C106.15 22.5021 106.432 22.0768 106.829 21.7789C107.225 21.481 107.712 21.3287 108.208 21.3476C108.422 21.3469 108.636 21.3701 108.845 21.417V23.1553C108.574 23.0726 108.292 23.0347 108.01 23.043C107.74 23.032 107.47 23.0796 107.221 23.1825C106.971 23.2854 106.746 23.4411 106.562 23.639C106.378 23.8369 106.239 24.0722 106.155 24.3289C106.07 24.5856 106.042 24.8575 106.073 25.126V30.4961H104.215L104.215 21.4424Z" fill="white"/>
<path d="M117.413 27.8369C117.163 29.4805 115.562 30.6084 113.514 30.6084C110.881 30.6084 109.246 28.8437 109.246 26.0127C109.246 23.1728 110.889 21.331 113.436 21.331C115.941 21.331 117.516 23.0517 117.516 25.7969V26.4336H111.122V26.5459C111.092 26.8791 111.134 27.2148 111.244 27.5306C111.354 27.8464 111.531 28.1352 111.761 28.3778C111.991 28.6203 112.271 28.8111 112.58 28.9374C112.89 29.0637 113.223 29.1226 113.557 29.1103C113.997 29.1515 114.437 29.0498 114.814 28.8203C115.191 28.5909 115.483 28.246 115.648 27.8369L117.413 27.8369ZM111.131 25.1348H115.657C115.674 24.8352 115.628 24.5353 115.524 24.2541C115.419 23.9729 115.257 23.7164 115.049 23.5006C114.84 23.2849 114.589 23.1145 114.312 23.0003C114.034 22.8861 113.736 22.8305 113.436 22.8369C113.134 22.8351 112.834 22.8932 112.554 23.008C112.274 23.1227 112.019 23.2918 111.805 23.5054C111.59 23.7191 111.42 23.973 111.305 24.2527C111.189 24.5323 111.13 24.8321 111.131 25.1348Z" fill="white"/>
<path d="M45.8547 8.73101C46.2443 8.70305 46.6353 8.76191 46.9994 8.90334C47.3635 9.04478 47.6917 9.26526 47.9603 9.54888C48.2289 9.83251 48.4312 10.1722 48.5526 10.5435C48.674 10.9147 48.7115 11.3083 48.6623 11.6959C48.6623 13.6021 47.6321 14.6979 45.8547 14.6979H43.6995V8.73101H45.8547ZM44.6262 13.854H45.7512C46.0296 13.8707 46.3082 13.825 46.5668 13.7204C46.8253 13.6158 47.0573 13.4548 47.2458 13.2493C47.4343 13.0437 47.5745 12.7987 47.6564 12.5321C47.7383 12.2655 47.7596 11.9839 47.719 11.708C47.7567 11.4332 47.7331 11.1534 47.65 10.8887C47.5669 10.6241 47.4263 10.3811 47.2382 10.1771C47.0501 9.97321 46.8193 9.81341 46.5622 9.70917C46.3051 9.60493 46.0282 9.55885 45.7512 9.57422H44.6262V13.854Z" fill="white"/>
<path d="M49.7092 12.4444C49.6809 12.1484 49.7148 11.8499 49.8086 11.5678C49.9024 11.2857 50.0542 11.0264 50.2541 10.8064C50.4541 10.5864 50.6978 10.4107 50.9697 10.2904C51.2415 10.1701 51.5355 10.108 51.8328 10.108C52.13 10.108 52.424 10.1701 52.6959 10.2904C52.9677 10.4107 53.2114 10.5864 53.4114 10.8064C53.6113 11.0264 53.7631 11.2857 53.8569 11.5678C53.9508 11.8499 53.9846 12.1484 53.9563 12.4444C53.9851 12.7406 53.9517 13.0396 53.8581 13.3221C53.7645 13.6046 53.6128 13.8644 53.4128 14.0848C53.2129 14.3053 52.969 14.4814 52.6968 14.6019C52.4247 14.7225 52.1304 14.7847 51.8328 14.7847C51.5351 14.7847 51.2408 14.7225 50.9687 14.6019C50.6966 14.4814 50.4527 14.3053 50.2527 14.0848C50.0527 13.8644 49.901 13.6046 49.8074 13.3221C49.7138 13.0396 49.6804 12.7406 49.7092 12.4444ZM53.0422 12.4444C53.0422 11.4683 52.6037 10.8975 51.8342 10.8975C51.0618 10.8975 50.6272 11.4683 50.6272 12.4444C50.6272 13.4283 51.0618 13.9947 51.8342 13.9947C52.6038 13.9946 53.0422 13.4243 53.0422 12.4444Z" fill="white"/>
<path d="M59.6018 14.6978H58.6799L57.7493 11.3814H57.679L56.7522 14.6978H55.8391L54.5979 10.1948H55.4993L56.3059 13.6308H56.3723L57.2981 10.1948H58.1506L59.0764 13.6308H59.1467L59.9495 10.1948H60.8381L59.6018 14.6978Z" fill="white"/>
<path d="M61.8821 10.1948H62.7375V10.9102H62.804C62.9166 10.6532 63.1066 10.4379 63.3475 10.2941C63.5884 10.1503 63.8681 10.0852 64.1477 10.1079C64.3668 10.0914 64.5868 10.1245 64.7914 10.2046C64.996 10.2847 65.1799 10.4098 65.3296 10.5706C65.4793 10.7315 65.5909 10.9239 65.6561 11.1337C65.7213 11.3436 65.7385 11.5654 65.7063 11.7827V14.6977H64.8176V12.0059C64.8176 11.2822 64.5032 10.9224 63.8459 10.9224C63.6972 10.9154 63.5487 10.9408 63.4106 10.9966C63.2726 11.0524 63.1482 11.1374 63.0461 11.2458C62.944 11.3542 62.8665 11.4834 62.819 11.6245C62.7714 11.7657 62.755 11.9154 62.7707 12.0635V14.6978H61.8821L61.8821 10.1948Z" fill="white"/>
<path d="M67.1223 8.43701H68.011V14.6978H67.1223V8.43701Z" fill="white"/>
<path d="M69.2463 12.4444C69.218 12.1484 69.2519 11.8498 69.3458 11.5677C69.4396 11.2857 69.5914 11.0263 69.7914 10.8063C69.9913 10.5863 70.2351 10.4106 70.5069 10.2903C70.7788 10.17 71.0728 10.1079 71.3701 10.1079C71.6674 10.1079 71.9614 10.17 72.2333 10.2903C72.5051 10.4106 72.7489 10.5863 72.9488 10.8063C73.1488 11.0263 73.3006 11.2857 73.3944 11.5677C73.4883 11.8498 73.5222 12.1484 73.4939 12.4444C73.5227 12.7406 73.4892 13.0396 73.3956 13.3221C73.302 13.6046 73.1503 13.8644 72.9503 14.0848C72.7503 14.3052 72.5063 14.4814 72.2342 14.6019C71.9621 14.7224 71.6677 14.7847 71.3701 14.7847C71.0725 14.7847 70.7781 14.7224 70.506 14.6019C70.2339 14.4814 69.99 14.3052 69.7899 14.0848C69.5899 13.8644 69.4382 13.6046 69.3446 13.3221C69.251 13.0396 69.2175 12.7406 69.2463 12.4444ZM72.5793 12.4444C72.5793 11.4683 72.1408 10.8975 71.3713 10.8975C70.5989 10.8975 70.1643 11.4683 70.1643 12.4444C70.1643 13.4283 70.5989 13.9947 71.3713 13.9947C72.1409 13.9946 72.5793 13.4243 72.5793 12.4444Z" fill="white"/>
<path d="M74.4294 13.4243C74.4294 12.6138 75.033 12.1465 76.1042 12.0801L77.324 12.0098V11.6211C77.324 11.1455 77.0095 10.877 76.4021 10.877C75.906 10.877 75.5623 11.0591 75.4636 11.3775H74.6033C74.6941 10.604 75.4216 10.1079 76.4431 10.1079C77.572 10.1079 78.2087 10.6699 78.2087 11.6211V14.6978H77.3533V14.065H77.283C77.1402 14.292 76.9398 14.477 76.7022 14.6012C76.4646 14.7254 76.1983 14.7843 75.9304 14.772C75.7414 14.7916 75.5503 14.7715 75.3696 14.7128C75.1888 14.6541 75.0224 14.5581 74.8809 14.4312C74.7395 14.3042 74.6263 14.149 74.5485 13.9756C74.4708 13.8022 74.4302 13.6144 74.4294 13.4243ZM77.324 13.0396V12.6631L76.2244 12.7334C75.6042 12.7749 75.323 12.9859 75.323 13.3828C75.323 13.7881 75.6745 14.0239 76.158 14.0239C76.2996 14.0383 76.4427 14.024 76.5787 13.9819C76.7147 13.9398 76.8409 13.8708 76.9497 13.7789C77.0584 13.6871 77.1476 13.5743 77.212 13.4473C77.2763 13.3203 77.3144 13.1816 77.324 13.0396Z" fill="white"/>
<path d="M79.3767 12.4444C79.3767 11.0215 80.1082 10.1201 81.2458 10.1201C81.5273 10.1072 81.8066 10.1746 82.0511 10.3145C82.2956 10.4544 82.4953 10.661 82.6267 10.9101H82.6931V8.43701H83.5818V14.6978H82.7302V13.9863H82.6599C82.5183 14.2338 82.3117 14.4378 82.0624 14.5763C81.8132 14.7148 81.5308 14.7825 81.2458 14.772C80.1003 14.772 79.3767 13.8706 79.3767 12.4444ZM80.2947 12.4444C80.2947 13.3994 80.7449 13.9741 81.4978 13.9741C82.2468 13.9741 82.7097 13.3911 82.7097 12.4483C82.7097 11.5098 82.242 10.9185 81.4978 10.9185C80.7498 10.9185 80.2947 11.4971 80.2947 12.4444Z" fill="white"/>
<path d="M87.2585 12.4444C87.2302 12.1484 87.2641 11.8499 87.3579 11.5678C87.4518 11.2857 87.6035 11.0264 87.8035 10.8064C88.0034 10.5864 88.2471 10.4107 88.519 10.2904C88.7908 10.1701 89.0848 10.108 89.3821 10.108C89.6793 10.108 89.9733 10.1701 90.2452 10.2904C90.517 10.4107 90.7607 10.5864 90.9607 10.8064C91.1606 11.0264 91.3124 11.2857 91.4062 11.5678C91.5001 11.8499 91.5339 12.1484 91.5056 12.4444C91.5345 12.7406 91.501 13.0396 91.4074 13.3221C91.3138 13.6046 91.1622 13.8644 90.9622 14.0848C90.7622 14.3053 90.5183 14.4814 90.2462 14.6019C89.974 14.7225 89.6797 14.7847 89.3821 14.7847C89.0845 14.7847 88.7901 14.7225 88.518 14.6019C88.2459 14.4814 88.002 14.3053 87.802 14.0848C87.602 13.8644 87.4503 13.6046 87.3567 13.3221C87.2631 13.0396 87.2297 12.7406 87.2585 12.4444ZM90.5915 12.4444C90.5915 11.4683 90.1531 10.8975 89.3835 10.8975C88.6111 10.8975 88.1765 11.4683 88.1765 12.4444C88.1765 13.4283 88.6111 13.9947 89.3835 13.9947C90.1531 13.9946 90.5915 13.4243 90.5915 12.4444Z" fill="white"/>
<path d="M92.698 10.1948H93.5535V10.9102H93.6199C93.7325 10.6532 93.9225 10.4379 94.1634 10.2941C94.4043 10.1503 94.684 10.0852 94.9636 10.1079C95.1827 10.0914 95.4027 10.1245 95.6073 10.2046C95.8119 10.2847 95.9959 10.4098 96.1456 10.5706C96.2952 10.7315 96.4068 10.9239 96.472 11.1337C96.5372 11.3436 96.5544 11.5654 96.5222 11.7827V14.6977H95.6335V12.0059C95.6335 11.2822 95.3191 10.9224 94.6619 10.9224C94.5131 10.9154 94.3646 10.9408 94.2265 10.9966C94.0885 11.0524 93.9641 11.1374 93.862 11.2458C93.7599 11.3542 93.6824 11.4834 93.6349 11.6245C93.5874 11.7657 93.5709 11.9154 93.5867 12.0635V14.6978H92.698V10.1948Z" fill="white"/>
<path d="M101.544 9.07374V10.2153H102.519V10.9639H101.544V13.2793C101.544 13.751 101.738 13.9575 102.18 13.9575C102.294 13.9572 102.407 13.9503 102.519 13.937V14.6773C102.36 14.7058 102.198 14.721 102.036 14.7227C101.048 14.7227 100.654 14.375 100.654 13.5068V10.9638H99.9392V10.2153H100.654V9.07374H101.544Z" fill="white"/>
<path d="M103.733 8.43701H104.614V10.9185H104.684C104.802 10.6591 104.998 10.4425 105.243 10.2982C105.489 10.1539 105.773 10.0888 106.057 10.1118C106.275 10.1 106.493 10.1364 106.695 10.2184C106.898 10.3004 107.079 10.4261 107.228 10.5864C107.376 10.7468 107.487 10.9378 107.552 11.146C107.618 11.3541 107.637 11.5742 107.608 11.7905V14.6978H106.719V12.0098C106.719 11.2905 106.384 10.9263 105.756 10.9263C105.603 10.9137 105.449 10.9347 105.306 10.9878C105.162 11.0408 105.031 11.1247 104.923 11.2334C104.815 11.3421 104.732 11.4732 104.68 11.6173C104.628 11.7614 104.608 11.9152 104.622 12.0679V14.6977H103.733L103.733 8.43701Z" fill="white"/>
<path d="M112.79 13.4819C112.669 13.8935 112.407 14.2495 112.051 14.4876C111.694 14.7258 111.265 14.8309 110.839 14.7847C110.542 14.7925 110.247 14.7357 109.975 14.6182C109.702 14.5006 109.458 14.3252 109.261 14.1041C109.063 13.8829 108.915 13.6214 108.829 13.3376C108.742 13.0537 108.718 12.7544 108.759 12.4605C108.719 12.1656 108.743 11.8656 108.83 11.581C108.916 11.2963 109.063 11.0335 109.26 10.8105C109.457 10.5874 109.699 10.4092 109.971 10.288C110.243 10.1668 110.537 10.1054 110.835 10.1079C112.088 10.1079 112.843 10.9639 112.843 12.3779V12.688H109.664V12.7378C109.65 12.9031 109.671 13.0694 109.725 13.2261C109.779 13.3829 109.865 13.5266 109.978 13.6481C110.091 13.7695 110.228 13.866 110.38 13.9314C110.533 13.9968 110.697 14.0297 110.863 14.0278C111.076 14.0533 111.291 14.0151 111.482 13.9178C111.672 13.8206 111.83 13.6689 111.934 13.4819L112.79 13.4819ZM109.664 12.0308H111.938C111.949 11.8796 111.929 11.7278 111.878 11.5851C111.827 11.4424 111.747 11.3119 111.642 11.2021C111.538 11.0922 111.412 11.0054 111.272 10.9472C111.132 10.8891 110.981 10.8608 110.83 10.8643C110.676 10.8623 110.524 10.8912 110.381 10.9491C110.239 11.0071 110.11 11.0929 110.001 11.2017C109.892 11.3104 109.806 11.4397 109.748 11.5821C109.691 11.7245 109.662 11.8771 109.664 12.0308Z" fill="white"/>
</g>
<defs>
<clipPath id="clip0_6_11749">
<rect width="135" height="40" fill="white"/>
</clipPath>
</defs>
</svg>
