<svg width="32" height="32" viewBox="0 0 32 32" fill="none" xmlns="http://www.w3.org/2000/svg">
<path d="M6.66658 1.33333H2.66659C2.31296 1.33333 1.97382 1.47381 1.72378 1.72386C1.47373 1.97391 1.33325 2.31304 1.33325 2.66667V29.3333C1.33325 29.687 1.47373 30.0261 1.72378 30.2761C1.97382 30.5262 2.31296 30.6667 2.66659 30.6667H6.66658V1.33333Z" fill="#C4B5FD"/>
<path d="M9.33325 30.6667H22.6666V1.33333H9.33325V30.6667ZM15.9999 25.3333C15.6463 25.3333 15.3072 25.1929 15.0571 24.9428C14.8071 24.6928 14.6666 24.3536 14.6666 24C14.6666 23.6464 14.8071 23.3072 15.0571 23.0572C15.3072 22.8071 15.6463 22.6667 15.9999 22.6667C16.3535 22.6667 16.6927 22.8071 16.9427 23.0572C17.1928 23.3072 17.3333 23.6464 17.3333 24C17.3333 24.3536 17.1928 24.6928 16.9427 24.9428C16.6927 25.1929 16.3535 25.3333 15.9999 25.3333ZM15.9999 6.66667C16.3535 6.66667 16.6927 6.80714 16.9427 7.05719C17.1928 7.30724 17.3333 7.64638 17.3333 8C17.3333 8.35362 17.1928 8.69276 16.9427 8.94281C16.6927 9.19286 16.3535 9.33333 15.9999 9.33333C15.6463 9.33333 15.3072 9.19286 15.0571 8.94281C14.8071 8.69276 14.6666 8.35362 14.6666 8C14.6666 7.64638 14.8071 7.30724 15.0571 7.05719C15.3072 6.80714 15.6463 6.66667 15.9999 6.66667ZM15.9999 14.6667C16.3535 14.6667 16.6927 14.8071 16.9427 15.0572C17.1928 15.3072 17.3333 15.6464 17.3333 16C17.3333 16.3536 17.1928 16.6928 16.9427 16.9428C16.6927 17.1929 16.3535 17.3333 15.9999 17.3333C15.6463 17.3333 15.3072 17.1929 15.0571 16.9428C14.8071 16.6928 14.6666 16.3536 14.6666 16C14.6666 15.6464 14.8071 15.3072 15.0571 15.0572C15.3072 14.8071 15.6463 14.6667 15.9999 14.6667Z" fill="#7C3AED"/>
<path d="M29.3333 1.33333H25.3333V30.6667H29.3333C29.6869 30.6667 30.026 30.5262 30.2761 30.2761C30.5261 30.0261 30.6666 29.687 30.6666 29.3333V2.66667C30.6666 2.31304 30.5261 1.97391 30.2761 1.72386C30.026 1.47381 29.6869 1.33333 29.3333 1.33333Z" fill="#1DB5BE"/>
</svg>
