<svg width="32" height="33" viewBox="0 0 32 33" fill="none" xmlns="http://www.w3.org/2000/svg">
<path d="M11.9999 13.8333H2.66659C2.31296 13.8333 1.97382 13.6929 1.72378 13.4428C1.47373 13.1928 1.33325 12.8536 1.33325 12.5V3.16668C1.33325 2.81305 1.47373 2.47392 1.72378 2.22387C1.97382 1.97382 2.31296 1.83334 2.66659 1.83334H11.9999C12.3535 1.83334 12.6927 1.97382 12.9427 2.22387C13.1928 2.47392 13.3333 2.81305 13.3333 3.16668V12.5C13.3333 12.8536 13.1928 13.1928 12.9427 13.4428C12.6927 13.6929 12.3535 13.8333 11.9999 13.8333Z" fill="#7C3AED"/>
<path d="M11.9999 31.1667H2.66659C2.31296 31.1667 1.97382 31.0262 1.72378 30.7762C1.47373 30.5261 1.33325 30.187 1.33325 29.8334V20.5C1.33325 20.1464 1.47373 19.8073 1.72378 19.5572C1.97382 19.3072 2.31296 19.1667 2.66659 19.1667H11.9999C12.3535 19.1667 12.6927 19.3072 12.9427 19.5572C13.1928 19.8073 13.3333 20.1464 13.3333 20.5V29.8334C13.3333 30.187 13.1928 30.5261 12.9427 30.7762C12.6927 31.0262 12.3535 31.1667 11.9999 31.1667Z" fill="#7C3AED"/>
<path d="M17.3333 3.16669H30.6666V5.83335H17.3333V3.16669Z" fill="#1DB5BE"/>
<path d="M30.6666 20.5H17.3333V23.1667H30.6666V20.5Z" fill="#1DB5BE"/>
<path d="M30.6666 27.1667H17.3333V29.8334H30.6666V27.1667Z" fill="#C4B5FD"/>
<path d="M30.6666 9.83334H17.3333V12.5H30.6666V9.83334Z" fill="#C4B5FD"/>
</svg>
